<?xml version="1.0" ?>
<!-- Uploaded to: SVG Repo, www.svgrepo.com, Generator: SVG Repo Mixer Tools -->
<svg width="800px" height="800px" viewBox="0 0 24 24" version="1.1" xml:space="preserve" xmlns="http://www.w3.org/2000/svg" xmlns:xlink="http://www.w3.org/1999/xlink">
<style type="text/css">
	.st0{opacity:0.2;fill:none;stroke:#000000;stroke-width:5.000000e-02;stroke-miterlimit:10;}
</style>
<g id="Layer_Grid"/>
<g id="Layer_2">
<path d="M20.1,7.1C18.4,6.4,15.4,6,12,6S5.6,6.4,3.9,7.1C2.6,7.5,2,8.2,2,9v3v6c0,0.8,0.6,1.5,1.9,1.9C5.6,20.6,8.6,21,12,21   s6.4-0.4,8.1-1.1c1.2-0.5,1.9-1.1,1.9-1.9v-6V9C22,8.2,21.4,7.5,20.1,7.1z M4.6,8.9C6.1,8.4,8.9,8,12,8s5.9,0.4,7.4,0.9   c0.1,0,0.1,0,0.2,0.1c0,0,0,0,0,0c-0.1,0-0.3,0.1-0.4,0.1c0,0-0.1,0-0.1,0c-0.2,0-0.3,0.1-0.5,0.1c0,0-0.1,0-0.1,0   c-0.2,0-0.4,0.1-0.6,0.1c0,0,0,0-0.1,0c-0.2,0-0.5,0.1-0.8,0.1c-0.1,0-0.1,0-0.2,0c-0.3,0-0.6,0.1-0.9,0.1c0,0-0.1,0-0.1,0   c-0.3,0-0.6,0.1-0.9,0.1c-0.1,0-0.1,0-0.2,0c-0.4,0-0.7,0-1.1,0.1c-0.1,0-0.2,0-0.2,0c-0.4,0-0.8,0-1.3,0c-0.4,0-0.9,0-1.3,0   c-0.1,0-0.2,0-0.2,0c-0.4,0-0.8,0-1.1-0.1c-0.1,0-0.1,0-0.2,0c-0.3,0-0.6-0.1-0.9-0.1c0,0-0.1,0-0.1,0c-0.3,0-0.6-0.1-0.9-0.1   c-0.1,0-0.1,0-0.2,0c-0.3,0-0.5-0.1-0.8-0.1c0,0-0.1,0-0.1,0C6,9.5,5.8,9.4,5.6,9.4c0,0-0.1,0-0.1,0c-0.2,0-0.4-0.1-0.5-0.1   c0,0-0.1,0-0.1,0C4.7,9.1,4.5,9.1,4.4,9c0,0,0,0,0,0C4.5,9,4.5,9,4.6,8.9z M20,17.8c-0.1,0.1-0.3,0.2-0.6,0.3   C17.9,18.6,15.1,19,12,19s-5.9-0.4-7.4-0.9c-0.3-0.1-0.5-0.2-0.6-0.3V14c0.1,0,0.1,0,0.2,0.1c0.2,0.1,0.4,0.1,0.7,0.2   c0.1,0,0.2,0.1,0.3,0.1c0.3,0.1,0.5,0.1,0.8,0.2c0,0,0.1,0,0.1,0c0.3,0.1,0.7,0.1,1,0.2c0.1,0,0.2,0,0.3,0c0.3,0,0.5,0.1,0.8,0.1   c0.1,0,0.2,0,0.3,0c0.3,0,0.6,0.1,0.9,0.1c0,0,0,0,0.1,0c0.3,0,0.6,0,0.9,0c0.1,0,0.2,0,0.2,0c0.2,0,0.4,0,0.6,0c0.1,0,0.1,0,0.2,0   c0.2,0,0.4,0,0.6,0s0.4,0,0.6,0c0.1,0,0.1,0,0.2,0c0.2,0,0.4,0,0.6,0c0.1,0,0.2,0,0.2,0c0.3,0,0.6,0,0.9,0c0,0,0,0,0.1,0   c0.3,0,0.6,0,0.9-0.1c0.1,0,0.2,0,0.3,0c0.3,0,0.5-0.1,0.8-0.1c0.1,0,0.2,0,0.3,0c0.3,0,0.7-0.1,1-0.2c0,0,0.1,0,0.1,0   c0.3-0.1,0.6-0.1,0.8-0.2c0.1,0,0.2,0,0.3-0.1c0.2-0.1,0.5-0.1,0.7-0.2c0.1,0,0.1,0,0.2-0.1V17.8z M20,11.8   C20,11.8,20,11.8,20,11.8c-0.1,0.1-0.2,0.1-0.3,0.2c0,0,0,0,0,0c-0.1,0.1-0.3,0.1-0.5,0.2c0,0,0,0-0.1,0c-0.2,0.1-0.4,0.1-0.6,0.2   c0,0-0.1,0-0.1,0c-0.2,0.1-0.5,0.1-0.8,0.2c0,0-0.1,0-0.1,0c-0.3,0.1-0.6,0.1-1,0.2c0,0-0.1,0-0.1,0c-0.4,0-0.7,0.1-1.1,0.1   c0,0-0.1,0-0.1,0c-0.4,0-0.9,0.1-1.3,0.1c0,0-0.1,0-0.1,0c-0.5,0-1,0-1.6,0s-1.1,0-1.6,0c0,0-0.1,0-0.1,0c-0.5,0-0.9,0-1.3-0.1   c0,0-0.1,0-0.1,0c-0.4,0-0.8-0.1-1.1-0.1c0,0-0.1,0-0.1,0c-0.3,0-0.7-0.1-1-0.2c0,0-0.1,0-0.1,0c-0.3-0.1-0.6-0.1-0.8-0.2   c0,0-0.1,0-0.1,0c-0.2-0.1-0.5-0.1-0.6-0.2c0,0,0,0-0.1,0C4.6,12.1,4.5,12,4.3,12c0,0,0,0,0,0c-0.1-0.1-0.2-0.1-0.3-0.2   c0,0,0,0,0,0V11c0.1,0,0.1,0,0.2,0.1c0.2,0.1,0.4,0.1,0.7,0.2c0.1,0,0.2,0.1,0.3,0.1c0.3,0.1,0.5,0.1,0.8,0.2c0,0,0.1,0,0.1,0   c0.3,0.1,0.7,0.1,1,0.2c0.1,0,0.2,0,0.3,0c0.3,0,0.5,0.1,0.8,0.1c0.1,0,0.2,0,0.3,0c0.3,0,0.6,0.1,0.9,0.1c0,0,0,0,0.1,0   c0.3,0,0.6,0,0.9,0c0.1,0,0.2,0,0.2,0c0.2,0,0.4,0,0.6,0c0.1,0,0.1,0,0.2,0c0.2,0,0.4,0,0.6,0s0.4,0,0.6,0c0.1,0,0.1,0,0.2,0   c0.2,0,0.4,0,0.6,0c0.1,0,0.2,0,0.2,0c0.3,0,0.6,0,0.9,0c0,0,0,0,0.1,0c0.3,0,0.6,0,0.9-0.1c0.1,0,0.2,0,0.3,0   c0.3,0,0.5-0.1,0.8-0.1c0.1,0,0.2,0,0.3,0c0.3,0,0.7-0.1,1-0.2c0,0,0.1,0,0.1,0c0.3-0.1,0.6-0.1,0.8-0.2c0.1,0,0.2,0,0.3-0.1   c0.2-0.1,0.5-0.1,0.7-0.2c0.1,0,0.1,0,0.2-0.1V11.8z"/>
<path d="M7.7,4.7l1-1c0.4-0.4,0.4-1,0-1.4s-1-0.4-1.4,0l-1,1c-0.4,0.4-0.4,1,0,1.4C6.5,4.9,6.7,5,7,5S7.5,4.9,7.7,4.7z"/>
<path d="M12.7,4.7l1-1c0.4-0.4,0.4-1,0-1.4s-1-0.4-1.4,0l-1,1c-0.4,0.4-0.4,1,0,1.4C11.5,4.9,11.7,5,12,5S12.5,4.9,12.7,4.7z"/>
<path d="M17.7,4.7l1-1c0.4-0.4,0.4-1,0-1.4s-1-0.4-1.4,0l-1,1c-0.4,0.4-0.4,1,0,1.4C16.5,4.9,16.7,5,17,5S17.5,4.9,17.7,4.7z"/>
</g>
</svg>